<svg xmlns="http://www.w3.org/2000/svg" width="46" height="46" fill="none"><path stroke="#404145" stroke-miterlimit="10" stroke-width="1.5" d="M3.79 44.38V30.96M3.79 10.76V2.62a1 1 0 011-1h39a1 1 0 011 1V35M6.79 7.88h34.97M6.79 4.74h1.56M9.91 4.74h1.56M13.04 4.74h1.56M44.76 36.69v2.68M44.76 40.94v1.56"/><path fill="#A6EACA" stroke="#404145" stroke-miterlimit="10" stroke-width="1.5" d="M21.58 12.7H2.83a1.59 1.59 0 00-1.59 1.59v13.12c0 .878.712 1.59 1.59 1.59h18.75a1.59 1.59 0 001.59-1.59V14.29a1.59 1.59 0 00-1.59-1.59z"/><path stroke="#404145" stroke-miterlimit="10" stroke-width="1.5" d="M41.31 14.43h-7.15M41.31 18.63h-14.3M41.31 22.83h-14.3M41.31 27.03h-14.3"/><path stroke="#404145" stroke-linejoin="round" stroke-width="1.5" d="M16.53 24.33L20 20.87l-3.46-3.46M7.88 24.33l-3.46-3.46 3.46-3.46M13.94 16.55l-3.46 8.65"/></svg>