<svg xmlns="http://www.w3.org/2000/svg" width="46" height="46" fill="none"><g clip-path="url(#clip0)"><path fill="#A6EACA" d="M32.2 29.9l-.3.1c-2 .6-3.2 2.7-2.6 4.7v.1c.4 1.2.2 2.4-.5 3.4-.1.1 0 .2.1.3h.2l1.4-.4c2.7-.9 4.7-3.3 4.8-6.2"/><path stroke="#404145" stroke-miterlimit="10" stroke-width="1.5" d="M32.2 29.9l-.3.1c-2 .6-3.2 2.7-2.6 4.7v.1c.4 1.2.2 2.4-.5 3.4-.1.1 0 .2.1.3h.2l1.4-.4c2.7-.9 4.7-3.3 4.8-6.2"/><path stroke="#404145" stroke-miterlimit="10" stroke-width="1.5" d="M43.9 16.3c.8.6 1 1.7.4 2.5L35.2 32l-2.9-2 9.2-13.1c.5-.9 1.6-1.1 2.4-.6z"/><path fill="#A6EACA" d="M32.2 29.9l-.3.1c-2 .6-3.2 2.7-2.6 4.7v.1c.4 1.2.2 2.4-.5 3.4-.1.1 0 .2.1.3h.2l1.4-.4c2.7-.9 4.7-3.3 4.8-6.2"/><path stroke="#404145" stroke-miterlimit="10" stroke-width="1.5" d="M32.2 29.9l-.3.1c-2 .6-3.2 2.7-2.6 4.7v.1c.4 1.2.2 2.4-.5 3.4-.1.1 0 .2.1.3h.2l1.4-.4c2.7-.9 4.7-3.3 4.8-6.2"/><path stroke="#404145" stroke-miterlimit="10" stroke-width="1.5" d="M43.9 16.3c.8.6 1 1.7.4 2.5L35.2 32l-2.9-2 9.2-13.1c.5-.9 1.6-1.1 2.4-.6zM39 31.7v4.5M.8 44.5V2.7c0-.5.4-.9.9-.9H38c.5 0 .9.4.9.9v12M3.5 7.6h32.7M3.5 4.7H5M6.5 4.7h1.4M9.4 4.7h1.4"/><path stroke="#404145" stroke-miterlimit="10" stroke-width="1.5" d="M5.1 11.5h16c.5 0 .9.4.9.9V27c0 .5-.4.9-.9.9h-16c-.5 0-.9-.4-.9-.9V12.4c-.1-.5.3-.9.9-.9z"/><path stroke="#404145" stroke-miterlimit="10" stroke-width="1.5" d="M11.4 18.3a1.8 1.8 0 100-3.6 1.8 1.8 0 000 3.6zM6.4 23.6L9.1 21l2.4 2.4 5.1-5.1 3.1 3.1M35.4 13.9h-5.1M35.4 18.2H25.2M32.5 22.5h-7.3M4.5 32.2h7.1c.1 0 .2.1.2.2v5.7c0 .1-.1.2-.2.2H4.5c-.1 0-.2-.1-.2-.2v-5.7c0-.1.1-.2.2-.2z"/><path fill="#A6EACA" stroke="#404145" stroke-miterlimit="10" stroke-width="1.5" d="M17 32.2h7.1c.1 0 .2.1.2.2v5.7c0 .1-.1.2-.2.2H17c-.1 0-.2-.1-.2-.2v-5.7c0-.1.1-.2.2-.2z"/><path stroke="#404145" stroke-miterlimit="10" stroke-width="1.5" d="M39 38.5v2.1"/></g><defs><clipPath id="clip0"><path fill="#fff" d="M0 0h45.4v43.5H0z" transform="translate(0 1)"/></clipPath></defs></svg>